HIERARCHY
ROOT Hips
{
	OFFSET 0.000000 88.474243 0.000000
	CHANNELS 6 Xposition Yposition Zposition Zrotation Yrotation Xrotation 
	JOINT Hips_Spine
	{
		OFFSET 0.000000 0.000000 0.000000
		CHANNELS 3 Zrotation Yrotation Xrotation
		JOINT Spine
		{
			OFFSET 0.005100 8.711998 -0.691000
			CHANNELS 3 Zrotation Yrotation Xrotation
			JOINT Spine1
			{
				OFFSET -0.009200 8.660301 -1.275000
				CHANNELS 3 Zrotation Yrotation Xrotation
				JOINT Spine2
				{
					OFFSET 0.006300 9.852501 -1.857000
					CHANNELS 3 Zrotation Yrotation Xrotation
					JOINT Spine2_Neck
					{
						OFFSET 0.000000 0.000000 0.000000
						CHANNELS 3 Zrotation Yrotation Xrotation
						JOINT Neck
						{
							OFFSET 0.016300 11.420799 -0.263300
							CHANNELS 3 Zrotation Yrotation Xrotation
							End Site #name: Head
							{
								OFFSET -0.019200 9.262405 2.362500
							}
						}
					}
					JOINT Spine2_LeftShoulder
					{
						OFFSET 0.000000 0.000000 0.000000
						CHANNELS 3 Zrotation Yrotation Xrotation
						JOINT LeftShoulder
						{
							OFFSET 5.616900 6.732201 -0.345700
							CHANNELS 3 Zrotation Yrotation Xrotation
							JOINT LeftArm
							{
								OFFSET 10.664888 -0.183372 -2.440700
								CHANNELS 3 Zrotation Yrotation Xrotation
								JOINT LeftForeArm
								{
									OFFSET 27.459126 0.000000 0.000000
									CHANNELS 3 Zrotation Yrotation Xrotation
									End Site #name: LeftHand
									{
										OFFSET 21.306858 0.000000 0.000000
									}
								}
							}
						}
					}
					JOINT Spine2_RightShoulder
					{
						OFFSET 0.000000 0.000000 0.000000
						CHANNELS 3 Zrotation Yrotation Xrotation
						JOINT RightShoulder
						{
							OFFSET -5.580300 6.737503 -0.344400
							CHANNELS 3 Zrotation Yrotation Xrotation
							JOINT RightArm
							{
								OFFSET -10.679335 -0.188484 -2.383900
								CHANNELS 3 Zrotation Yrotation Xrotation
								JOINT RightForeArm
								{
									OFFSET -27.503529 0.000000 0.000000
									CHANNELS 3 Zrotation Yrotation Xrotation
									End Site #name: RightHand
									{
										OFFSET -21.306808 0.000000 0.000000
									}
								}
							}
						}
					}
				}
			}
		}
	}
	JOINT Hips_LeftUpLeg
	{
		OFFSET 0.000000 0.000000 0.000000
		CHANNELS 3 Zrotation Yrotation Xrotation
		JOINT LeftUpLeg
		{
			OFFSET 6.857700 -6.739601 0.312100
			CHANNELS 3 Zrotation Yrotation Xrotation
			JOINT LeftLeg
			{
				OFFSET -0.367590 -34.731552 -4.572400
				CHANNELS 3 Zrotation Yrotation Xrotation
				End Site #name: LeftFoot
				{
					OFFSET 0.367590 -34.656704 -6.067400
				}
			}
		}
	}
	JOINT Hips_RightUpLeg
	{
		OFFSET 0.000000 0.000000 0.000000
		CHANNELS 3 Zrotation Yrotation Xrotation
		JOINT RightUpLeg
		{
			OFFSET -6.876100 -6.733299 0.301000
			CHANNELS 3 Zrotation Yrotation Xrotation
			JOINT RightLeg
			{
				OFFSET 0.347353 -34.795158 -4.515900
				CHANNELS 3 Zrotation Yrotation Xrotation
				End Site #name: RightFoot
				{
					OFFSET -0.347353 -34.589367 -6.070300
				}
			}
		}
	}
}
MOTION
Frames: 9
Frame Time: 0.041667
5.645976 0.835319 1.384494 -4.026265 -9.407459 -0.882852 -0.000000 -0.000000 0.000000 -0.221261 0.649883 4.347191 -0.845065 1.328857 8.785807 0.000000 0.000000 0.000000 -0.882055 1.251372 8.853181 1.466303 -2.175821 2.747103 -0.827110 1.311922 8.770572 2.982108 0.891803 0.403235 -73.583036 -11.773825 26.333138 -177.923051 -87.211252 177.696958 -0.836007 1.275386 8.695506 -3.838267 -2.074666 1.136093 80.555789 -9.480256 4.122141 -174.904117 82.551993 -175.173988 -0.000000 -0.000000 0.000000 1.257441 1.094653 -20.308531 -0.920205 0.471620 28.876336 0.000000 0.000000 -0.000000 -7.646556 0.655904 -15.712245 0.400017 -0.691202 17.978933 
5.836798 0.882774 1.420071 -3.963935 -9.617473 -0.893852 -0.000000 -0.000000 0.000000 -0.211115 0.672296 4.298858 -0.819248 1.318006 8.706790 0.000000 0.000000 0.000000 -0.869186 1.243525 8.775304 1.207289 -2.447679 2.790838 -0.804596 1.301556 8.694417 2.958305 0.858532 0.401600 -73.670520 -11.265933 26.104570 -178.137487 -87.218915 177.915950 -0.815498 1.262906 8.619493 -3.771209 -2.061366 1.121475 80.714522 -9.646704 3.858166 -174.668440 82.583298 -174.944597 -0.000000 -0.000000 0.000000 1.061509 1.039554 -20.159352 -0.887303 0.458693 28.489859 0.000000 0.000000 -0.000000 -7.785327 0.906390 -15.567978 0.348143 -0.694713 17.474224 
6.013516 0.924106 1.444907 -3.918499 -9.788896 -0.909886 -0.000000 -0.000000 0.000000 -0.199795 0.689169 4.266807 -0.792929 1.311820 8.641540 0.000000 0.000000 0.000000 -0.853182 1.237304 8.693062 1.071564 -2.621390 2.896193 -0.782197 1.294554 8.631430 2.946576 0.847786 0.399059 -73.751060 -10.790000 25.904167 -178.390122 -87.228964 178.170622 -0.798415 1.256469 8.553779 -3.724236 -2.033319 1.114445 80.890110 -9.802284 3.652156 -174.485623 82.554449 -174.768451 -0.000000 -0.000000 -0.000000 0.886246 0.992382 -19.992812 -0.854286 0.457443 28.116201 0.000000 0.000000 -0.000000 -7.899266 1.148139 -15.432464 0.366750 -0.709898 17.053158 
6.173308 0.959148 1.459796 -3.889882 -9.925689 -0.922201 -0.000000 -0.000000 0.000000 -0.189464 0.697400 4.249902 -0.769016 1.310057 8.581745 0.000000 0.000000 0.000000 -0.836587 1.235940 8.612005 0.988183 -2.749494 2.979643 -0.759941 1.291533 8.574782 2.943938 0.839030 0.396429 -73.814346 -10.385474 25.712739 -178.685256 -87.284245 178.465885 -0.782924 1.255970 8.492799 -3.707194 -1.994958 1.108112 81.050168 -9.946025 3.472810 -174.327201 82.492777 -174.618456 -0.000000 -0.000000 -0.000000 0.728973 0.957088 -19.810810 -0.822998 0.464765 27.760728 0.000000 0.000000 -0.000000 -7.978308 1.380393 -15.345385 0.384340 -0.712479 16.760623 
6.315968 0.988251 1.466420 -3.879930 -10.063377 -0.930381 -0.000000 -0.000000 0.000000 -0.183155 0.696989 4.221984 -0.747567 1.311359 8.525018 0.000000 0.000000 0.000000 -0.819703 1.238978 8.535691 0.921656 -2.846769 3.034087 -0.740443 1.291487 8.523906 2.949447 0.845690 0.394296 -73.872502 -10.050781 25.546472 -178.978003 -87.345300 178.756845 -0.769673 1.261152 8.441633 -3.690589 -1.935953 1.102435 81.176283 -10.050076 3.359052 -174.209423 82.397918 -174.512852 -0.000000 -0.000000 -0.000000 0.591958 0.929130 -19.632656 -0.798161 0.476794 27.446174 0.000000 0.000000 -0.000000 -8.047306 1.563269 -15.304560 0.394019 -0.710070 16.588110 
6.436215 1.011232 1.466206 -3.900513 -10.204295 -0.927743 -0.000000 -0.000000 0.000000 -0.180113 0.691600 4.194811 -0.729028 1.314014 8.469377 0.000000 0.000000 0.000000 -0.802583 1.245292 8.470273 0.873114 -2.905813 3.043016 -0.723707 1.293972 8.481734 2.960789 0.867628 0.394319 -73.924989 -9.764247 25.384582 -179.404584 -87.401345 179.180859 -0.757949 1.269185 8.398905 -3.685400 -1.879484 1.096981 81.232932 -10.136387 3.296375 -174.150968 82.299372 -174.467459 -0.000000 -0.000000 -0.000000 0.474543 0.918059 -19.473233 -0.780207 0.488960 27.182776 -0.000000 0.000000 -0.000000 -8.113999 1.679587 -15.298188 0.404052 -0.710535 16.510734 
6.527661 1.028057 1.461712 -3.951259 -10.339927 -0.912207 -0.000000 -0.000000 0.000000 -0.178592 0.682041 4.174568 -0.713580 1.319160 8.419749 0.000000 0.000000 0.000000 -0.786621 1.253045 8.416247 0.847769 -2.933199 3.027224 -0.710212 1.297713 8.445499 2.974139 0.910295 0.395853 -73.970900 -9.557362 25.234210 -179.862489 -87.459584 179.637249 -0.747409 1.279684 8.362480 -3.673096 -1.836138 1.088819 81.229556 -10.174813 3.307812 -174.184666 82.189613 -174.513857 -0.000000 -0.000000 -0.000000 0.369957 0.931706 -19.345089 -0.768503 0.499633 27.018610 -0.000000 0.000000 -0.000000 -8.204242 1.723223 -15.292630 0.417415 -0.707315 16.495985 
6.583496 1.037597 1.453493 -3.983957 -10.457530 -0.905292 -0.000000 -0.000000 0.000000 -0.178316 0.666945 4.159103 -0.701285 1.323931 8.374782 0.000000 0.000000 0.000000 -0.770241 1.261192 8.375316 0.843206 -2.931198 2.995012 -0.699672 1.302844 8.416212 2.993644 0.961804 0.397169 -74.002070 -9.413428 25.113195 179.581500 -87.515581 -179.806673 -0.737926 1.291591 8.334702 -3.672030 -1.823455 1.076710 81.181554 -10.177689 3.360021 -174.261386 82.097873 -174.605235 -0.000000 -0.000000 -0.000000 0.274866 0.961816 -19.260005 -0.762211 0.506705 26.956915 -0.000000 -0.000000 -0.000000 -8.302189 1.715543 -15.311378 0.431329 -0.703251 16.555898 
6.595866 1.040248 1.443835 -3.996940 -10.580310 -0.899524 -0.000000 -0.000000 -0.000000 -0.176291 0.650813 4.153971 -0.692043 1.329479 8.340591 0.000000 0.000000 0.000000 -0.753380 1.270559 8.349426 0.860354 -2.900822 2.946367 -0.691646 1.308615 8.393085 3.018275 1.013576 0.398382 -74.020233 -9.304812 25.034304 178.914173 -87.573192 -179.137971 -0.729674 1.304072 8.316935 -3.656393 -1.808147 1.063368 81.100065 -10.148242 3.443464 -174.407541 82.036934 -174.764601 -0.000000 -0.000000 -0.000000 0.199319 0.997096 -19.205854 -0.767071 0.513401 26.994722 -0.000000 -0.000000 -0.000000 -8.400223 1.660041 -15.346359 0.440590 -0.705749 16.640764 
